<?xml version="1.0" encoding="UTF-8" standalone="no"?>
<!-- Created with Inkscape (http://www.inkscape.org/) -->

<svg
   version="1.1"
   id="svg1"
   width="880"
   height="880"
   viewBox="0 0 880 880"
   sodipodi:docname="egyptian-sphinx-publicdomainvectors.org.svg"
   inkscape:version="1.3.2 (091e20e, 2023-11-25, custom)"
   xmlns:inkscape="http://www.inkscape.org/namespaces/inkscape"
   xmlns:sodipodi="http://sodipodi.sourceforge.net/DTD/sodipodi-0.dtd"
   xmlns="http://www.w3.org/2000/svg"
   xmlns:svg="http://www.w3.org/2000/svg">
  <defs
     id="defs1">
    <clipPath
       clipPathUnits="userSpaceOnUse"
       id="clipPath3">
      <path
         d="M 0,660 H 660 V 0 H 0 Z"
         transform="translate(-329.00491,-535.36331)"
         id="path3" />
    </clipPath>
    <clipPath
       clipPathUnits="userSpaceOnUse"
       id="clipPath5">
      <path
         d="M 0,660 H 660 V 0 H 0 Z"
         transform="translate(-394.21781,-466.94921)"
         id="path5" />
    </clipPath>
    <clipPath
       clipPathUnits="userSpaceOnUse"
       id="clipPath7">
      <path
         d="M 0,660 H 660 V 0 H 0 Z"
         transform="translate(-122.5537,-182.7207)"
         id="path7" />
    </clipPath>
    <clipPath
       clipPathUnits="userSpaceOnUse"
       id="clipPath9">
      <path
         d="M 0,660 H 660 V 0 H 0 Z"
         transform="translate(-253.62211,-380.99611)"
         id="path9" />
    </clipPath>
    <clipPath
       clipPathUnits="userSpaceOnUse"
       id="clipPath11">
      <path
         d="M 0,660 H 660 V 0 H 0 Z"
         transform="translate(-64.111301,-182.7207)"
         id="path11" />
    </clipPath>
    <clipPath
       clipPathUnits="userSpaceOnUse"
       id="clipPath13">
      <path
         d="M 0,660 H 660 V 0 H 0 Z"
         transform="translate(-485.04391,-252.51271)"
         id="path13" />
    </clipPath>
    <clipPath
       clipPathUnits="userSpaceOnUse"
       id="clipPath15">
      <path
         d="M 0,660 H 660 V 0 H 0 Z"
         transform="translate(-483.62601,-291.916)"
         id="path15" />
    </clipPath>
    <clipPath
       clipPathUnits="userSpaceOnUse"
       id="clipPath17">
      <path
         d="M 0,660 H 660 V 0 H 0 Z"
         transform="translate(-455.78811,-372.70411)"
         id="path17" />
    </clipPath>
    <clipPath
       clipPathUnits="userSpaceOnUse"
       id="clipPath19">
      <path
         d="M 0,660 H 660 V 0 H 0 Z"
         transform="translate(-128.00001,-252.19041)"
         id="path19" />
    </clipPath>
    <clipPath
       clipPathUnits="userSpaceOnUse"
       id="clipPath21">
      <path
         d="M 0,660 H 660 V 0 H 0 Z"
         transform="translate(-40.176801,-210.22561)"
         id="path21" />
    </clipPath>
  </defs>
  <sodipodi:namedview
     id="namedview1"
     pagecolor="#ffffff"
     bordercolor="#000000"
     borderopacity="0.25"
     inkscape:showpageshadow="2"
     inkscape:pageopacity="0.0"
     inkscape:pagecheckerboard="0"
     inkscape:deskcolor="#d1d1d1"
     inkscape:zoom="0.67272727"
     inkscape:cx="439.25676"
     inkscape:cy="440"
     inkscape:window-width="1440"
     inkscape:window-height="830"
     inkscape:window-x="-6"
     inkscape:window-y="-6"
     inkscape:window-maximized="1"
     inkscape:current-layer="g1">
    <inkscape:page
       x="0"
       y="0"
       inkscape:label="1"
       id="page1"
       width="880"
       height="880"
       margin="243.62801 52.086666 166.18266 35.231735"
       bleed="0" />
  </sodipodi:namedview>
  <g
     id="g1"
     inkscape:groupmode="layer"
     inkscape:label="1">
    <g
       id="group-MC0">
      <path
         id="path2"
         d="m 0,0 c 124.936,0 226.215,-101.28 226.215,-226.216 0,-39.523 -10.146,-76.671 -27.958,-109.003 h -396.514 c -17.812,32.332 -27.96,69.48 -27.96,109.003 C -226.217,-101.28 -124.936,0 0,0"
         style="fill:#fbca07;fill-opacity:1;fill-rule:evenodd;stroke:none"
         transform="matrix(1.3333333,0,0,-1.3333333,438.6732,166.18227)"
         clip-path="url(#clipPath3)" />
      <path
         id="path4"
         d="M 0,0 226.718,-284.228 H 55.45 Z"
         style="fill:#fde6ca;fill-opacity:1;fill-rule:evenodd;stroke:none"
         transform="matrix(1.3333333,0,0,-1.3333333,525.62373,257.40107)"
         clip-path="url(#clipPath5)" />
      <path
         id="path6"
         d="M 0,0 271.664,284.228 357.146,0 Z"
         style="fill:#facc96;fill-opacity:1;fill-rule:evenodd;stroke:none"
         transform="matrix(1.3333333,0,0,-1.3333333,163.40493,636.3724)"
         clip-path="url(#clipPath7)" />
      <path
         id="path8"
         d="M 0,0 158.155,-198.275 H 38.682 Z"
         style="fill:#fde6ca;fill-opacity:1;fill-rule:evenodd;stroke:none"
         transform="matrix(1.3333333,0,0,-1.3333333,338.1628,372.0052)"
         clip-path="url(#clipPath9)" />
      <path
         id="path10"
         d="M 0,0 189.511,198.275 249.144,0 Z"
         style="fill:#facc96;fill-opacity:1;fill-rule:evenodd;stroke:none"
         transform="matrix(1.3333333,0,0,-1.3333333,85.481733,636.3724)"
         clip-path="url(#clipPath11)" />
      <path
         id="path12"
         d="m 0,0 -6.631,24.747 c -1.135,4.236 -0.314,8.362 2.355,11.842 1.724,2.246 3.909,3.817 6.421,4.649 5.494,1.819 9.27,6.203 10.251,11.908 0.564,3.273 0.383,6.648 -0.542,10.103 L 3.425,94.707 c -1.109,4.135 -2.798,7.475 -5.472,10.817 l -3.666,4.581 c -3.993,4.993 -9.115,7.937 -15.436,8.878 L -33,120.748 c -7.31,1.09 -13.994,-0.601 -19.907,-5.038 L -86.199,90.743 c -4.941,-3.705 -8.093,-8.347 -9.717,-14.303 l -7.219,-26.47 c -1.789,-6.557 -0.49,-12.973 3.709,-18.318 L -98.325,30.251 -161.971,0 -48.818,-11.689 Z"
         style="fill:#da8a38;fill-opacity:1;fill-rule:evenodd;stroke:none"
         transform="matrix(1.3333333,0,0,-1.3333333,646.7252,543.3164)"
         clip-path="url(#clipPath13)" />
      <path
         id="path14"
         d="m 0,0 -3.499,-1.875 c -5.149,-2.756 -7.703,-8.442 -6.344,-14.122 l 5.911,-24.688 c -20.232,3.022 -36.314,12.151 -48.754,26.633 l -15.47,40.568 14.095,19.595 6.362,0.163 c 3.963,0.102 7.306,-2.894 7.639,-6.841 l 1.674,-19.792 c 0.765,-9.033 7.617,-16.096 16.62,-17.133 z"
         style="fill:#f7af59;fill-opacity:1;fill-rule:evenodd;stroke:none"
         transform="matrix(1.3333333,0,0,-1.3333333,644.83467,490.77867)"
         clip-path="url(#clipPath15)" />
      <path
         id="path16"
         d="m 0,0 -3.744,0.557 c -7.311,1.089 -13.994,-0.601 -19.907,-5.038 l -33.292,-24.967 c -4.941,-3.705 -8.093,-8.347 -9.717,-14.303 l -7.219,-26.471 c -1.789,-6.556 -0.49,-12.972 3.709,-18.317 l 1.101,-1.401 14.995,4.018 c 17.252,4.623 29.211,18.783 30.878,36.567 l 1.83,19.507 c 1.089,11.609 7.04,21.128 17,27.191 z"
         style="fill:#c3732a;fill-opacity:1;fill-rule:evenodd;stroke:none"
         transform="matrix(1.3333333,0,0,-1.3333333,607.71747,383.0612)"
         clip-path="url(#clipPath17)" />
      <path
         id="path18"
         d="m 0,0 377.586,0.322 c 7.563,0 13.752,-6.189 13.752,-13.751 0,-4.286 -1.986,-8.132 -5.085,-10.658 -3.361,-2.742 -4.576,-7.098 -3.121,-11.184 1.457,-4.088 5.149,-6.694 9.489,-6.694 h 27.595 c 7.564,0 13.752,-6.188 13.752,-13.752 0,-7.562 -6.189,-13.753 -13.752,-13.753 H -79.015 l -6.058,27.505 c 19.308,0 44.664,2.166 55.095,23.309 C -24.205,-6.961 -13.041,-0.012 0,0"
         style="fill:#da8a38;fill-opacity:1;fill-rule:evenodd;stroke:none"
         transform="matrix(1.3333333,0,0,-1.3333333,170.66667,543.74613)"
         clip-path="url(#clipPath19)" />
      <path
         id="path20"
         d="m 0,0 h 378.086 c 7.563,0 13.75,-6.189 13.75,-13.752 v -10e-4 c 0,-7.561 -6.187,-13.752 -13.75,-13.752 L 0,-27.505 c -7.565,0 -13.753,6.191 -13.753,13.752 v 10e-4 C -13.753,-6.189 -7.565,0 0,0"
         style="fill:#c3732a;fill-opacity:1;fill-rule:evenodd;stroke:none"
         transform="matrix(1.3333333,0,0,-1.3333333,53.569067,599.6992)"
         clip-path="url(#clipPath21)" />
    </g>
  </g>
</svg>
